<svg width="64" height="64" viewBox="0 0 64 64" fill="none" xmlns="http://www.w3.org/2000/svg">
  <rect width="64" height="64" rx="12" fill="url(#linkedin-gradient)"/>
  <path d="M16 14h32a2 2 0 012 2v32a2 2 0 01-2 2H16a2 2 0 01-2-2V16a2 2 0 012-2z" fill="#0077B5"/>
  <rect x="18" y="26" width="6" height="18" rx="1" fill="white"/>
  <circle cx="21" cy="21" r="3" fill="white"/>
  <path d="M28 26h6v2.5c1-1.5 3-3 6-3 5 0 7 3 7 8V44h-6V35c0-2-1-4-3-4s-4 2-4 4v9h-6V26z" fill="white"/>
  <defs>
    <linearGradient id="linkedin-gradient" x1="0" y1="0" x2="64" y2="64">
      <stop offset="0%" stop-color="#0A66C2"/>
      <stop offset="100%" stop-color="#004182"/>
    </linearGradient>
  </defs>
</svg>
