<svg width="32" height="32" viewBox="0 0 32 32" fill="none" xmlns="http://www.w3.org/2000/svg">
  <!-- Folder body -->
  <path d="M4 8C4 6.89543 4.89543 6 6 6H12L14 8H26C27.1046 8 28 8.89543 28 10V24C28 25.1046 27.1046 26 26 26H6C4.89543 26 4 25.1046 4 24V8Z" fill="#FCD34D"/>
  
  <!-- Folder tab -->
  <path d="M4 8C4 6.89543 4.89543 6 6 6H12L14 8H4Z" fill="#F59E0B"/>
  
  <!-- Folder shadow -->
  <path d="M4 10H28V24C28 25.1046 27.1046 26 26 26H6C4.89543 26 4 25.1046 4 24V10Z" fill="#F59E0B"/>
  
  <!-- Highlight -->
  <path d="M6 8H12L14 10H26C26.5523 10 27 10.4477 27 11V12H5V9C5 8.44772 5.44772 8 6 8Z" fill="#FEF3C7"/>
</svg>