<svg width="32" height="32" viewBox="0 0 32 32" fill="none" xmlns="http://www.w3.org/2000/svg">
  <!-- Gear teeth -->
  <path d="M16 2L18 6H14L16 2Z" fill="#6B7280"/>
  <path d="M16 30L14 26H18L16 30Z" fill="#6B7280"/>
  <path d="M2 16L6 14V18L2 16Z" fill="#6B7280"/>
  <path d="M30 16L26 18V14L30 16Z" fill="#6B7280"/>
  <path d="M6.1 6.1L9.5 9.5L5.5 13.5L6.1 6.1Z" fill="#6B7280"/>
  <path d="M25.9 25.9L22.5 22.5L26.5 18.5L25.9 25.9Z" fill="#6B7280"/>
  <path d="M25.9 6.1L22.5 9.5L18.5 5.5L25.9 6.1Z" fill="#6B7280"/>
  <path d="M6.1 25.9L9.5 22.5L13.5 26.5L6.1 25.9Z" fill="#6B7280"/>
  
  <!-- Main gear body -->
  <circle cx="16" cy="16" r="12" fill="#374151" stroke="#6B7280" stroke-width="2"/>
  
  <!-- Inner circle -->
  <circle cx="16" cy="16" r="6" fill="#1F2937" stroke="#9CA3AF" stroke-width="1"/>
  
  <!-- Center hole -->
  <circle cx="16" cy="16" r="2" fill="#111827"/>
</svg>