<svg width="32" height="32" viewBox="0 0 32 32" fill="none" xmlns="http://www.w3.org/2000/svg">
  <!-- Monitor frame -->
  <rect x="2" y="4" width="28" height="20" rx="2" fill="#374151" stroke="#6B7280" stroke-width="1"/>
  
  <!-- Screen -->
  <rect x="4" y="6" width="24" height="16" fill="#111827"/>
  
  <!-- CPU usage bars -->
  <rect x="6" y="18" width="2" height="2" fill="#10B981"/>
  <rect x="9" y="16" width="2" height="4" fill="#10B981"/>
  <rect x="12" y="14" width="2" height="6" fill="#F59E0B"/>
  <rect x="15" y="12" width="2" height="8" fill="#EF4444"/>
  <rect x="18" y="15" width="2" height="5" fill="#F59E0B"/>
  <rect x="21" y="17" width="2" height="3" fill="#10B981"/>
  <rect x="24" y="19" width="2" height="1" fill="#10B981"/>
  
  <!-- Performance indicators -->
  <circle cx="8" cy="10" r="1" fill="#10B981"/>
  <circle cx="12" cy="8" r="1" fill="#F59E0B"/>
  <circle cx="16" cy="9" r="1" fill="#EF4444"/>
  <circle cx="20" cy="11" r="1" fill="#10B981"/>
  <circle cx="24" cy="10" r="1" fill="#3B82F6"/>
  
  <!-- Stand -->
  <rect x="14" y="24" width="4" height="2" fill="#6B7280"/>
  <rect x="10" y="26" width="12" height="2" rx="1" fill="#6B7280"/>
</svg>